<?xml version="1.0" encoding="UTF-8" standalone="no"?>
<!-- Created with Inkscape (http://www.inkscape.org/) -->

<svg
   width="1024"
   height="768"
   viewBox="0 0 1024 768"
   version="1.1"
   id="svg5"
   inkscape:version="1.2.2 (732a01da63, 2022-12-09)"
   sodipodi:docname="buck3.svg"
   xml:space="preserve"
   xmlns:inkscape="http://www.inkscape.org/namespaces/inkscape"
   xmlns:sodipodi="http://sodipodi.sourceforge.net/DTD/sodipodi-0.dtd"
   xmlns="http://www.w3.org/2000/svg"
   xmlns:svg="http://www.w3.org/2000/svg"><sodipodi:namedview
     id="namedview7"
     pagecolor="#ffffff"
     bordercolor="#666666"
     borderopacity="1.0"
     inkscape:showpageshadow="2"
     inkscape:pageopacity="0.0"
     inkscape:pagecheckerboard="0"
     inkscape:deskcolor="#d1d1d1"
     inkscape:document-units="px"
     showgrid="true"
     inkscape:zoom="1.4142136"
     inkscape:cx="248.90159"
     inkscape:cy="558.61436"
     inkscape:window-width="1920"
     inkscape:window-height="1027"
     inkscape:window-x="1912"
     inkscape:window-y="127"
     inkscape:window-maximized="1"
     inkscape:current-layer="g1270"><inkscape:grid
       type="xygrid"
       id="grid132"
       spacingx="2"
       spacingy="2" /></sodipodi:namedview><defs
     id="defs2" /><g
     inkscape:groupmode="layer"
     id="layer4"
     inkscape:label="belt"
     style="display:inline"><path
       id="path300"
       style="display:inline;fill:none;stroke:#3a4fb4;stroke-width:3.13852;paint-order:fill markers stroke"
       d="m 457.43323,512.83381 v 0 L 457.43324,300 c 0,-23.50897 19.05779,-42.56676 42.56676,-42.56676 23.50897,0 42.56676,19.05779 42.56676,42.56676 l -1e-5,212.83381"
       sodipodi:nodetypes="ccsssc"
       transform="matrix(0.79874529,0,0,0.79874529,220.62736,60.376413)" /><path
       id="path516"
       style="display:inline;fill:none;stroke:#3a4fb4;stroke-width:2.50688;paint-order:fill markers stroke"
       d="m 586,460 v 0 l 10e-6,170.00001 c 0,18.77768 15.22232,34 33.99999,34 18.77768,0 34,-15.22232 34,-34 V 460"
       sodipodi:nodetypes="ccsssc" /></g><g
     inkscape:groupmode="layer"
     id="layer5"
     inkscape:label="bucket"
     style="display:inline"><path
       style="display:inline;fill:none;stroke:#000000;stroke-width:1;stroke-linecap:butt;stroke-linejoin:round;stroke-dasharray:none;stroke-opacity:1"
       d="m 564,298 20,-5 v 14 c 0,0 -0.79815,2.79815 -2,4 -2,2 -6,0 -6,0 l -12,-12 z"
       id="path555"
       sodipodi:nodetypes="cccsccc"
       inkscape:transform-center-x="46"
       inkscape:transform-center-y="2.4444444" /><path
       style="display:inline;fill:none;stroke:#000000;stroke-width:1;stroke-linecap:butt;stroke-linejoin:round;stroke-dasharray:none;stroke-opacity:1"
       d="m 581.81623,258.98781 17.67767,10.6066 -9.89949,9.89949 c 0,0 -2.54297,1.41422 -4.24264,1.41422 -2.82843,0 -4.24264,-4.24264 -4.24264,-4.24264 v -16.97057 z"
       id="path1902"
       sodipodi:nodetypes="cccsccc"
       inkscape:transform-center-x="29.698485"
       inkscape:transform-center-y="-30.052035" /><path
       style="display:inline;fill:none;stroke:#000000;stroke-width:1;stroke-linecap:butt;stroke-linejoin:round;stroke-dasharray:none;stroke-opacity:1"
       d="M 621.99999,244 627,264 h -14 c 0,0 -2.79815,-0.79815 -4,-2 -2,-2 0,-6 0,-6 l 12,-12 z"
       id="path1904"
       sodipodi:nodetypes="cccsccc"
       inkscape:transform-center-x="2.4444444"
       inkscape:transform-center-y="-46" /><path
       style="display:inline;fill:none;stroke:#000000;stroke-width:1;stroke-linecap:butt;stroke-linejoin:round;stroke-dasharray:none;stroke-opacity:1"
       d="m 661.01219,261.81623 -10.6066,17.67767 -9.89949,-9.89949 c 0,0 -1.41422,-2.54297 -1.41422,-4.24264 0,-2.82843 4.24264,-4.24264 4.24264,-4.24264 h 16.97057 z"
       id="path1906"
       sodipodi:nodetypes="cccsccc"
       inkscape:transform-center-x="-30.052035"
       inkscape:transform-center-y="-29.698485" /><path
       style="display:inline;fill:none;stroke:#000000;stroke-width:1;stroke-linecap:butt;stroke-linejoin:round;stroke-dasharray:none;stroke-opacity:1"
       d="M 676,301.99999 656,307 v -14 c 0,0 0.79815,-2.79815 2,-4 2,-2 6,0 6,0 l 12,12 z"
       id="path1908"
       sodipodi:nodetypes="cccsccc"
       inkscape:transform-center-x="-46"
       inkscape:transform-center-y="-2.4444444" /><path
       style="fill:#92deff;fill-opacity:1;stroke:none;stroke-width:0.0999999;stroke-linejoin:round;stroke-dasharray:none;paint-order:fill markers stroke"
       d="m 578.41335,311.18354 c -1.73982,-0.3898 -1.79235,-0.43237 -7.15931,-5.80165 l -5.21281,-5.21506 h 8.71523 8.71524 l -0.0543,3.57973 -0.0543,3.57973 -0.7955,1.59099 c -0.70374,1.40748 -0.88647,1.63686 -1.58425,1.98873 -0.74169,0.37402 -1.68479,0.47586 -2.57,0.27753 z"
       id="path2128" /><path
       style="fill:#92deff;fill-opacity:1;stroke:none;stroke-width:0.0999999;stroke-linejoin:round;stroke-dasharray:none;paint-order:fill markers stroke"
       d="m 584.41125,280.03323 c -0.82607,-0.37519 -1.66088,-1.31285 -2.29053,-2.57272 -0.42809,-0.85657 -0.437,-0.96021 -0.437,-5.08233 v -4.20793 h 7.15823 7.15824 l 1.22737,0.76381 1.22736,0.76381 -4.71748,4.69977 c -4.86987,4.85158 -5.32531,5.2113 -7.22411,5.70588 -1.25414,0.32666 -1.22605,0.3276 -2.10208,-0.0703 z"
       id="path2130" /><path
       style="fill:#92deff;fill-opacity:1;stroke:none;stroke-width:0.0999999;stroke-linejoin:round;stroke-dasharray:none;paint-order:fill markers stroke"
       d="m 611.58458,262.83653 c -1.19316,-0.50421 -2.86942,-1.78089 -2.63978,-2.01053 0.0526,-0.0526 3.68282,0.14638 8.06704,0.44228 4.38422,0.2959 8.164,0.53801 8.39952,0.53801 0.32117,0 0.45718,0.12151 0.54415,0.48613 0.0638,0.26738 0.1573,0.62535 0.20785,0.7955 0.0864,0.29086 -0.30778,0.30902 -6.59332,0.30371 l -6.68524,-0.006 z"
       id="path2132" /><path
       style="display:inline;fill:none;stroke:#000000;stroke-width:1;stroke-linecap:butt;stroke-linejoin:round;stroke-dasharray:none;stroke-opacity:1"
       d="m 564,328 20,-5 v 14 c 0,0 -0.79815,2.79815 -2,4 -2,2 -6,0 -6,0 l -12,-12 z"
       id="path3100"
       sodipodi:nodetypes="cccsccc"
       inkscape:transform-center-x="46"
       inkscape:transform-center-y="2.4444444" /><path
       style="display:inline;fill:none;stroke:#000000;stroke-width:1;stroke-linecap:butt;stroke-linejoin:round;stroke-dasharray:none;stroke-opacity:1"
       d="M 676,331.99999 656,337 v -14 c 0,0 0.79815,-2.79815 2,-4 2,-2 6,0 6,0 l 12,12 z"
       id="path3102"
       sodipodi:nodetypes="cccsccc"
       inkscape:transform-center-x="-46"
       inkscape:transform-center-y="-2.4444444" /><path
       style="fill:#92deff;fill-opacity:1;stroke:none;stroke-width:0.0999999;stroke-linejoin:round;stroke-dasharray:none;paint-order:fill markers stroke"
       d="m 578.41335,341.18354 c -1.73982,-0.3898 -1.79235,-0.43237 -7.15931,-5.80165 l -5.21281,-5.21506 h 8.71523 8.71524 l -0.0543,3.57973 -0.0543,3.57973 -0.7955,1.59099 c -0.70374,1.40748 -0.88647,1.63686 -1.58425,1.98873 -0.74169,0.37402 -1.68479,0.47586 -2.57,0.27753 z"
       id="path3104" /><path
       style="display:inline;fill:none;stroke:#000000;stroke-width:1;stroke-linecap:butt;stroke-linejoin:round;stroke-dasharray:none;stroke-opacity:1"
       d="m 564,358 20,-5 v 14 c 0,0 -0.79815,2.79815 -2,4 -2,2 -6,0 -6,0 l -12,-12 z"
       id="path3106"
       sodipodi:nodetypes="cccsccc"
       inkscape:transform-center-x="46"
       inkscape:transform-center-y="2.4444444" /><path
       style="display:inline;fill:none;stroke:#000000;stroke-width:1;stroke-linecap:butt;stroke-linejoin:round;stroke-dasharray:none;stroke-opacity:1"
       d="M 676,361.99999 656,367 v -14 c 0,0 0.79815,-2.79815 2,-4 2,-2 6,0 6,0 l 12,12 z"
       id="path3108"
       sodipodi:nodetypes="cccsccc"
       inkscape:transform-center-x="-46"
       inkscape:transform-center-y="-2.4444444" /><path
       style="fill:#92deff;fill-opacity:1;stroke:none;stroke-width:0.0999999;stroke-linejoin:round;stroke-dasharray:none;paint-order:fill markers stroke"
       d="m 578.41335,371.18354 c -1.73982,-0.3898 -1.79235,-0.43237 -7.15931,-5.80165 l -5.21281,-5.21506 h 8.71523 8.71524 l -0.0543,3.57973 -0.0543,3.57973 -0.7955,1.59099 c -0.70374,1.40748 -0.88647,1.63686 -1.58425,1.98873 -0.74169,0.37402 -1.68479,0.47586 -2.57,0.27753 z"
       id="path3110" /><path
       style="display:inline;fill:none;stroke:#000000;stroke-width:1;stroke-linecap:butt;stroke-linejoin:round;stroke-dasharray:none;stroke-opacity:1"
       d="m 564,388 20,-5 v 14 c 0,0 -0.79815,2.79815 -2,4 -2,2 -6,0 -6,0 l -12,-12 z"
       id="path3112"
       sodipodi:nodetypes="cccsccc"
       inkscape:transform-center-x="46"
       inkscape:transform-center-y="2.4444444" /><path
       style="display:inline;fill:none;stroke:#000000;stroke-width:1;stroke-linecap:butt;stroke-linejoin:round;stroke-dasharray:none;stroke-opacity:1"
       d="M 676,391.99999 656,397 v -14 c 0,0 0.79815,-2.79815 2,-4 2,-2 6,0 6,0 l 12,12 z"
       id="path3114"
       sodipodi:nodetypes="cccsccc"
       inkscape:transform-center-x="-46"
       inkscape:transform-center-y="-2.4444444" /><path
       style="fill:#92deff;fill-opacity:1;stroke:none;stroke-width:0.0999999;stroke-linejoin:round;stroke-dasharray:none;paint-order:fill markers stroke"
       d="m 578.41335,401.18354 c -1.73982,-0.3898 -1.79235,-0.43237 -7.15931,-5.80165 l -5.21281,-5.21506 h 8.71523 8.71524 l -0.0543,3.57973 -0.0543,3.57973 -0.7955,1.59099 c -0.70374,1.40748 -0.88647,1.63686 -1.58425,1.98873 -0.74169,0.37402 -1.68479,0.47586 -2.57,0.27753 z"
       id="path3116" /><path
       style="display:inline;fill:none;stroke:#000000;stroke-width:1;stroke-linecap:butt;stroke-linejoin:round;stroke-dasharray:none;stroke-opacity:1"
       d="m 564,418 20,-5 v 14 c 0,0 -0.79815,2.79815 -2,4 -2,2 -6,0 -6,0 l -12,-12 z"
       id="path3118"
       sodipodi:nodetypes="cccsccc"
       inkscape:transform-center-x="46"
       inkscape:transform-center-y="2.4444444" /><path
       style="display:inline;fill:none;stroke:#000000;stroke-width:1;stroke-linecap:butt;stroke-linejoin:round;stroke-dasharray:none;stroke-opacity:1"
       d="M 676,421.99999 656,427 v -14 c 0,0 0.79815,-2.79815 2,-4 2,-2 6,0 6,0 l 12,12 z"
       id="path3120"
       sodipodi:nodetypes="cccsccc"
       inkscape:transform-center-x="-46"
       inkscape:transform-center-y="-2.4444444" /><path
       style="fill:#92deff;fill-opacity:1;stroke:none;stroke-width:0.0999999;stroke-linejoin:round;stroke-dasharray:none;paint-order:fill markers stroke"
       d="m 578.41335,431.18354 c -1.73982,-0.3898 -1.79235,-0.43237 -7.15931,-5.80165 l -5.21281,-5.21506 h 8.71523 8.71524 l -0.0543,3.57973 -0.0543,3.57973 -0.7955,1.59099 c -0.70374,1.40748 -0.88647,1.63686 -1.58425,1.98873 -0.74169,0.37402 -1.68479,0.47586 -2.57,0.27753 z"
       id="path3122" /><path
       style="display:inline;fill:none;stroke:#000000;stroke-width:1;stroke-linecap:butt;stroke-linejoin:round;stroke-dasharray:none;stroke-opacity:1"
       d="m 564,448 20,-5 v 14 c 0,0 -0.79815,2.79815 -2,4 -2,2 -6,0 -6,0 l -12,-12 z"
       id="path3124"
       sodipodi:nodetypes="cccsccc"
       inkscape:transform-center-x="46"
       inkscape:transform-center-y="2.4444444" /><path
       style="display:inline;fill:none;stroke:#000000;stroke-width:1;stroke-linecap:butt;stroke-linejoin:round;stroke-dasharray:none;stroke-opacity:1"
       d="M 676,451.99999 656,457 v -14 c 0,0 0.79815,-2.79815 2,-4 2,-2 6,0 6,0 l 12,12 z"
       id="path3126"
       sodipodi:nodetypes="cccsccc"
       inkscape:transform-center-x="-46"
       inkscape:transform-center-y="-2.4444444" /><path
       style="fill:#92deff;fill-opacity:1;stroke:none;stroke-width:0.0999999;stroke-linejoin:round;stroke-dasharray:none;paint-order:fill markers stroke"
       d="m 578.41335,461.18354 c -1.73982,-0.3898 -1.79235,-0.43237 -7.15931,-5.80165 l -5.21281,-5.21506 h 8.71523 8.71524 l -0.0543,3.57973 -0.0543,3.57973 -0.7955,1.59099 c -0.70374,1.40748 -0.88647,1.63686 -1.58425,1.98873 -0.74169,0.37402 -1.68479,0.47586 -2.57,0.27753 z"
       id="path3128" /><path
       style="display:inline;fill:none;stroke:#000000;stroke-width:1;stroke-linecap:butt;stroke-linejoin:round;stroke-dasharray:none;stroke-opacity:1"
       d="m 564,478 20,-5 v 14 c 0,0 -0.79815,2.79815 -2,4 -2,2 -6,0 -6,0 l -12,-12 z"
       id="path3130"
       sodipodi:nodetypes="cccsccc"
       inkscape:transform-center-x="46"
       inkscape:transform-center-y="2.4444444" /><path
       style="display:inline;fill:none;stroke:#000000;stroke-width:1;stroke-linecap:butt;stroke-linejoin:round;stroke-dasharray:none;stroke-opacity:1"
       d="M 676,481.99999 656,487 v -14 c 0,0 0.79815,-2.79815 2,-4 2,-2 6,0 6,0 l 12,12 z"
       id="path3132"
       sodipodi:nodetypes="cccsccc"
       inkscape:transform-center-x="-46"
       inkscape:transform-center-y="-2.4444444" /><path
       style="fill:#92deff;fill-opacity:1;stroke:none;stroke-width:0.0999999;stroke-linejoin:round;stroke-dasharray:none;paint-order:fill markers stroke"
       d="m 578.41335,491.18354 c -1.73982,-0.3898 -1.79235,-0.43237 -7.15931,-5.80165 l -5.21281,-5.21506 h 8.71523 8.71524 l -0.0543,3.57973 -0.0543,3.57973 -0.7955,1.59099 c -0.70374,1.40748 -0.88647,1.63686 -1.58425,1.98873 -0.74169,0.37402 -1.68479,0.47586 -2.57,0.27753 z"
       id="path3134" /><path
       style="display:inline;fill:none;stroke:#000000;stroke-width:1;stroke-linecap:butt;stroke-linejoin:round;stroke-dasharray:none;stroke-opacity:1"
       d="m 564,508 20,-5 v 14 c 0,0 -0.79815,2.79815 -2,4 -2,2 -6,0 -6,0 l -12,-12 z"
       id="path3136"
       sodipodi:nodetypes="cccsccc"
       inkscape:transform-center-x="46"
       inkscape:transform-center-y="2.4444444" /><path
       style="display:inline;fill:none;stroke:#000000;stroke-width:1;stroke-linecap:butt;stroke-linejoin:round;stroke-dasharray:none;stroke-opacity:1"
       d="M 676,511.99999 656,517 v -14 c 0,0 0.79815,-2.79815 2,-4 2,-2 6,0 6,0 l 12,12 z"
       id="path3138"
       sodipodi:nodetypes="cccsccc"
       inkscape:transform-center-x="-46"
       inkscape:transform-center-y="-2.4444444" /><path
       style="fill:#92deff;fill-opacity:1;stroke:none;stroke-width:0.0999999;stroke-linejoin:round;stroke-dasharray:none;paint-order:fill markers stroke"
       d="m 578.41335,521.18354 c -1.73982,-0.3898 -1.79235,-0.43237 -7.15931,-5.80165 l -5.21281,-5.21506 h 8.71523 8.71524 l -0.0543,3.57973 -0.0543,3.57973 -0.7955,1.59099 c -0.70374,1.40748 -0.88647,1.63686 -1.58425,1.98873 -0.74169,0.37402 -1.68479,0.47586 -2.57,0.27753 z"
       id="path3140" /><path
       style="display:inline;fill:none;stroke:#000000;stroke-width:1;stroke-linecap:butt;stroke-linejoin:round;stroke-dasharray:none;stroke-opacity:1"
       d="m 564,538 20,-5 v 14 c 0,0 -0.79815,2.79815 -2,4 -2,2 -6,0 -6,0 l -12,-12 z"
       id="path3142"
       sodipodi:nodetypes="cccsccc"
       inkscape:transform-center-x="46"
       inkscape:transform-center-y="2.4444444" /><path
       style="display:inline;fill:none;stroke:#000000;stroke-width:1;stroke-linecap:butt;stroke-linejoin:round;stroke-dasharray:none;stroke-opacity:1"
       d="M 676,541.99999 656,547 v -14 c 0,0 0.79815,-2.79815 2,-4 2,-2 6,0 6,0 l 12,12 z"
       id="path3144"
       sodipodi:nodetypes="cccsccc"
       inkscape:transform-center-x="-46"
       inkscape:transform-center-y="-2.4444444" /><path
       style="fill:#92deff;fill-opacity:1;stroke:none;stroke-width:0.0999999;stroke-linejoin:round;stroke-dasharray:none;paint-order:fill markers stroke"
       d="m 578.41335,551.18354 c -1.73982,-0.3898 -1.79235,-0.43237 -7.15931,-5.80165 l -5.21281,-5.21506 h 8.71523 8.71524 l -0.0543,3.57973 -0.0543,3.57973 -0.7955,1.59099 c -0.70374,1.40748 -0.88647,1.63686 -1.58425,1.98873 -0.74169,0.37402 -1.68479,0.47586 -2.57,0.27753 z"
       id="path3146" /><path
       style="display:inline;fill:none;stroke:#000000;stroke-width:1;stroke-linecap:butt;stroke-linejoin:round;stroke-dasharray:none;stroke-opacity:1"
       d="m 564,568 20,-5 v 14 c 0,0 -0.79815,2.79815 -2,4 -2,2 -6,0 -6,0 l -12,-12 z"
       id="path3148"
       sodipodi:nodetypes="cccsccc"
       inkscape:transform-center-x="46"
       inkscape:transform-center-y="2.4444444" /><path
       style="display:inline;fill:none;stroke:#000000;stroke-width:1;stroke-linecap:butt;stroke-linejoin:round;stroke-dasharray:none;stroke-opacity:1"
       d="M 676,571.99999 656,577 v -14 c 0,0 0.79815,-2.79815 2,-4 2,-2 6,0 6,0 l 12,12 z"
       id="path3150"
       sodipodi:nodetypes="cccsccc"
       inkscape:transform-center-x="-46"
       inkscape:transform-center-y="-2.4444444" /><path
       style="fill:#92deff;fill-opacity:1;stroke:none;stroke-width:0.0999999;stroke-linejoin:round;stroke-dasharray:none;paint-order:fill markers stroke"
       d="m 578.41335,581.18354 c -1.73982,-0.3898 -1.79235,-0.43237 -7.15931,-5.80165 l -5.21281,-5.21506 h 8.71523 8.71524 l -0.0543,3.57973 -0.0543,3.57973 -0.7955,1.59099 c -0.70374,1.40748 -0.88647,1.63686 -1.58425,1.98873 -0.74169,0.37402 -1.68479,0.47586 -2.57,0.27753 z"
       id="path3152" /><path
       style="display:inline;fill:none;stroke:#000000;stroke-width:1;stroke-linecap:butt;stroke-linejoin:round;stroke-dasharray:none;stroke-opacity:1"
       d="m 564,598 20,-5 v 14 c 0,0 -0.79815,2.79815 -2,4 -2,2 -6,0 -6,0 l -12,-12 z"
       id="path3154"
       sodipodi:nodetypes="cccsccc"
       inkscape:transform-center-x="46"
       inkscape:transform-center-y="2.4444444" /><path
       style="display:inline;fill:none;stroke:#000000;stroke-width:1;stroke-linecap:butt;stroke-linejoin:round;stroke-dasharray:none;stroke-opacity:1"
       d="M 676,601.99999 656,607 v -14 c 0,0 0.79815,-2.79815 2,-4 2,-2 6,0 6,0 l 12,12 z"
       id="path3156"
       sodipodi:nodetypes="cccsccc"
       inkscape:transform-center-x="-46"
       inkscape:transform-center-y="-2.4444444" /><path
       style="fill:#92deff;fill-opacity:1;stroke:none;stroke-width:0.0999999;stroke-linejoin:round;stroke-dasharray:none;paint-order:fill markers stroke"
       d="m 578.41335,611.18354 c -1.73982,-0.3898 -1.79235,-0.43237 -7.15931,-5.80165 l -5.21281,-5.21506 h 8.71523 8.71524 l -0.0543,3.57973 -0.0543,3.57973 -0.7955,1.59099 c -0.70374,1.40748 -0.88647,1.63686 -1.58425,1.98873 -0.74169,0.37402 -1.68479,0.47586 -2.57,0.27753 z"
       id="path3158" /><path
       style="display:inline;fill:none;stroke:#000000;stroke-width:1;stroke-linecap:butt;stroke-linejoin:round;stroke-dasharray:none;stroke-opacity:1"
       d="m 564,628 20,-5 v 14 c 0,0 -0.79815,2.79815 -2,4 -2,2 -6,0 -6,0 l -12,-12 z"
       id="path3160"
       sodipodi:nodetypes="cccsccc"
       inkscape:transform-center-x="46"
       inkscape:transform-center-y="2.4444444" /><path
       style="display:inline;fill:none;stroke:#000000;stroke-width:1;stroke-linecap:butt;stroke-linejoin:round;stroke-dasharray:none;stroke-opacity:1"
       d="M 676,631.99999 656,637 v -14 c 0,0 0.79815,-2.79815 2,-4 2,-2 6,0 6,0 l 12,12 z"
       id="path3162"
       sodipodi:nodetypes="cccsccc"
       inkscape:transform-center-x="-46"
       inkscape:transform-center-y="-2.4444444" /><path
       style="fill:#92deff;fill-opacity:1;stroke:none;stroke-width:0.0999999;stroke-linejoin:round;stroke-dasharray:none;paint-order:fill markers stroke"
       d="m 578.41335,641.18354 c -1.73982,-0.3898 -1.79235,-0.43237 -7.15931,-5.80165 l -5.21281,-5.21506 h 8.71523 8.71524 l -0.0543,3.57973 -0.0543,3.57973 -0.7955,1.59099 c -0.70374,1.40748 -0.88647,1.63686 -1.58425,1.98873 -0.74169,0.37402 -1.68479,0.47586 -2.57,0.27753 z"
       id="path3164" /><path
       style="display:inline;fill:none;stroke:#000000;stroke-width:1;stroke-linecap:butt;stroke-linejoin:round;stroke-dasharray:none;stroke-opacity:1"
       d="m 658.18377,671.01219 -17.67767,-10.6066 9.89949,-9.89949 c 0,0 2.54297,-1.41422 4.24264,-1.41422 2.82843,0 4.24264,4.24264 4.24264,4.24264 v 16.97057 z"
       id="path3272"
       sodipodi:nodetypes="cccsccc"
       inkscape:transform-center-x="-29.698485"
       inkscape:transform-center-y="30.052035" /><path
       style="display:inline;fill:none;stroke:#000000;stroke-width:1;stroke-linecap:butt;stroke-linejoin:round;stroke-dasharray:none;stroke-opacity:1"
       d="M 618.00001,686 613,666 h 14 c 0,0 2.79815,0.79815 4,2 2,2 0,6 0,6 l -12,12 z"
       id="path3274"
       sodipodi:nodetypes="cccsccc"
       inkscape:transform-center-x="-2.4444444"
       inkscape:transform-center-y="46" /><path
       style="display:inline;fill:none;stroke:#000000;stroke-width:1;stroke-linecap:butt;stroke-linejoin:round;stroke-dasharray:none;stroke-opacity:1"
       d="m 578.98781,668.18377 10.6066,-17.67767 9.89949,9.89949 c 0,0 1.41422,2.54297 1.41422,4.24264 0,2.82843 -4.24264,4.24264 -4.24264,4.24264 h -16.97057 z"
       id="path3276"
       sodipodi:nodetypes="cccsccc"
       inkscape:transform-center-x="30.052035"
       inkscape:transform-center-y="29.698485" /></g><g
     inkscape:label="roue flat bot"
     inkscape:groupmode="layer"
     id="g525"
     style="display:inline;stroke-width:1.25196"
     transform="matrix(0.79874529,0,0,0.79874529,220.62736,400.37641)"><circle
       style="display:inline;fill:none;stroke:#3a4fb4;stroke-width:0.999997;stroke-dasharray:none;stroke-opacity:1;paint-order:fill markers stroke"
       id="circle5766"
       cx="620"
       cy="630"
       r="28.602001"
       inkscape:label="sous-jante"
       transform="matrix(1.2519636,0,0,1.2519636,-276.21742,-501.25668)" /><path
       id="path5764"
       style="display:inline;fill:#d7ede4;fill-opacity:1;stroke:#5c00ff;stroke-width:0.999997;stroke-dasharray:none;stroke-opacity:1;paint-order:fill markers stroke"
       inkscape:label="fonte"
       inkscape:transform-center-y="-18.1146"
       d="m 603.18817,653.13952 c 12.20046,8.07851 18.27449,6.20639 14.15255,-14.07256 0,0 -0.28124,-1.77562 -1.82388,-2.89641 -1.54262,-1.12079 -3.31825,-0.83955 -3.31825,-0.83955 -20.56018,2.34633 -20.46368,8.7016 -9.01042,17.80852 z m -10.39029,-31.978 c -3.91296,14.09971 -0.25549,19.29795 17.75719,9.1112 0,0 1.60181,-0.81616 2.19103,-2.62964 0.58923,-1.81347 -0.22692,-3.41527 -0.22692,-3.41527 -8.58495,-18.82884 -14.59934,-16.77318 -19.7213,-3.06629 z m 44.01394,31.978 c 11.45327,-9.10692 11.54976,-15.46219 -9.01041,-17.80852 0,0 -1.77562,-0.28124 -3.31826,0.83955 -1.54264,1.12079 -1.82387,2.89641 -1.82387,2.89641 -4.12193,20.27895 1.95209,22.15107 14.15254,14.07256 z m 10.39031,-31.978 c -5.12195,-13.70689 -11.13635,-15.76255 -19.72129,3.06629 0,0 -0.81616,1.6018 -0.22693,3.41527 0.58923,1.81348 2.19104,2.62964 2.19104,2.62964 18.01268,10.18675 21.67015,4.98851 17.75718,-9.1112 z M 620,601.39802 c -14.61881,0.6356 -18.43241,5.7204 -3.178,19.7036 0,0 1.2712,1.2712 3.178,1.2712 1.90681,0 3.178,-1.2712 3.178,-1.2712 15.25441,-13.9832 11.4408,-19.068 -3.178,-19.7036 z m 4.4492,28.602 a 4.4492,4.4492 0 0 1 -4.4492,4.4492 4.4492,4.4492 0 0 1 -4.44921,-4.4492 4.4492,4.4492 0 0 1 4.44921,-4.4492 4.4492,4.4492 0 0 1 4.4492,4.4492 z m 27.3308,0 a 31.779998,31.779998 0 0 1 -31.78,31.78 31.779998,31.779998 0 0 1 -31.78,-31.78 31.779998,31.779998 0 0 1 31.78,-31.78 31.779998,31.779998 0 0 1 31.78,31.78 z"
       inkscape:transform-center-x="-5e-06"
       transform="matrix(1.2519636,0,0,1.2519636,-276.21742,-501.25668)" /></g><g
     inkscape:label="roue flat top"
     inkscape:groupmode="layer"
     id="g1270"
     style="display:inline;stroke-width:1.25196"
     transform="matrix(0.79874529,0,0,0.79874529,220.62736,60.376411)"><circle
       style="display:inline;fill:none;stroke:#3a4fb4;stroke-width:0.999997;stroke-dasharray:none;stroke-opacity:1;paint-order:fill markers stroke"
       id="path1903"
       cx="620"
       cy="300"
       r="28.602001"
       inkscape:label="sous-jante"
       transform="matrix(1.2519636,0,0,1.2519636,-276.21742,-75.589067)" /><path
       id="use1113"
       style="display:inline;fill:#d7ede4;fill-opacity:1;stroke:#5c00ff;stroke-width:0.999997;stroke-dasharray:none;stroke-opacity:1;paint-order:fill markers stroke"
       inkscape:label="fonte"
       inkscape:transform-center-y="-18.1146"
       d="m 603.18817,323.1395 c 12.20045,8.07851 18.27448,6.20639 14.15254,-14.07256 0,0 -0.28123,-1.77562 -1.82387,-2.89641 -1.54262,-1.12079 -3.31825,-0.83955 -3.31825,-0.83955 -20.56018,2.34633 -20.46368,8.7016 -9.01042,17.80852 z m -10.39029,-31.978 c -3.91296,14.09971 -0.25549,19.29795 17.75719,9.1112 0,0 1.60181,-0.81616 2.19103,-2.62964 0.58923,-1.81347 -0.22692,-3.41527 -0.22692,-3.41527 -8.58495,-18.82884 -14.59934,-16.77318 -19.7213,-3.06629 z m 44.01394,31.978 c 11.45327,-9.10692 11.54976,-15.46219 -9.01042,-17.80852 0,0 -1.77562,-0.28124 -3.31825,0.83955 -1.54264,1.12079 -1.82387,2.89641 -1.82387,2.89641 -4.12193,20.27895 1.95209,22.15107 14.15254,14.07256 z m 10.3903,-31.978 c -5.12195,-13.70689 -11.13635,-15.76255 -19.72129,3.06629 0,0 -0.81616,1.6018 -0.22693,3.41527 0.58923,1.81348 2.19104,2.62964 2.19104,2.62964 18.01268,10.18675 21.67015,4.98851 17.75718,-9.1112 z M 620,271.398 c -14.61881,0.6356 -18.43241,5.7204 -3.178,19.7036 0,0 1.2712,1.2712 3.178,1.2712 1.90681,0 3.178,-1.2712 3.178,-1.2712 15.25441,-13.9832 11.4408,-19.068 -3.178,-19.7036 z M 624.4492,300 A 4.4492,4.4492 0 0 1 620,304.4492 4.4492,4.4492 0 0 1 615.55079,300 4.4492,4.4492 0 0 1 620,295.5508 4.4492,4.4492 0 0 1 624.4492,300 Z m 27.3308,0 a 31.779998,31.779998 0 0 1 -31.78001,31.78 31.779998,31.779998 0 0 1 -31.78,-31.78 31.779998,31.779998 0 0 1 31.78,-31.78 A 31.779998,31.779998 0 0 1 651.78,300 Z"
       inkscape:transform-center-x="-5e-06"
       transform="matrix(1.2519636,0,0,1.2519636,-276.21742,-75.589067)" /></g></svg>
