<svg height="646.408" viewBox="0 0 1483.014 646.408" width="1483.014" xmlns="http://www.w3.org/2000/svg"><g stroke="#000"><path d="m1059.381 283.325-90.333-45.585v90.752z" fill="none" stroke-width="3"/><path d="m843.326 97.325-90.334-45.585v90.752z" fill="none" stroke-width="3"/><path d="m374.71 431.482-90.334-45.585v90.752z" fill="none" stroke-width="3"/><path d="m496.326 248.575 90.334-45.585v90.752z" fill="none" stroke-width="3"/><path d="m1015.089 596.741-90.334-45.585v90.752z" fill="none" stroke-width="3"/><path d="m1059.381 427.701-90.333-45.585v90.752z" fill="none" stroke-width="3"/><path d="m678.326 372.992h145v109h-145z" fill="none" stroke-width="3"/><path d="m469.326 372.992h109v109h-109z" fill="none" stroke-width="3"/><path d="m469.326 42.616h136v109h-136z" fill="none" stroke-width="3"/><path d="m823.326 426.492h145.722" fill="none" stroke-width="3"/><path d="m750.826 596.532h173.929" fill="none" stroke-width="3"/><path d="m969.047 282.492h-63" fill="none" stroke-width="3"/><path d="m906.047 248.366h-318.938" fill="none" stroke-width="3"/><path d="m798.367 189.846h-659.041" fill="none" stroke-width="3"/><path d="m501.041 248.366h-330.799" fill="none" stroke-width="3"/><path d="m678.326 431.273h-100" fill="none" stroke-width="3"/><path d="m469.326 431.273h-94.616" fill="none" stroke-width="3"/><path d="m284.376 431.273h-69.737" fill="none" stroke-width="3"/><path d="m163.992 452.439h-114.664" fill="none" stroke-width="3"/><path d="m752.992 97.2h-147.666" fill="none" stroke-width="3"/><path d="m906.047 97.2h-62.721" fill="none" stroke-width="3"/><path d="m1478.514 145.856c-64.482-64.482-168.58-64.929-232.509-1l79.236 117.636v259.027c20.299 20.299 53.447 20.063 74.037-.527v-258.5z" fill="none" stroke-width="3"/><path d="m1338.759 293.742h47" fill="none" stroke-width="5"/><path d="m1338.759 352.492h47" fill="none" stroke-width="5"/><path d="m1338.759 345.492v-45.803" fill="none" stroke-width="5"/><path d="m1385.759 345.492v-45.803" fill="none" stroke-width="5"/><path d="m1015.089 260.023h347.333" fill="none" stroke-width="3"/><path d="m1362.422 260.023v33.719" fill="none" stroke-width="3"/><path d="m1362.422 352.492v29.624" fill="none" stroke-width="3"/><path d="m1326.638 481.992h-50.999" fill="none" stroke-width="3"/><path d="m1400.639 481.992h-74.001" fill="none" stroke-dasharray="9 6" stroke-width="3"/><path d="m1185.089 382.116v-78.093" fill="none" stroke-width="3"/><path d="m231.93 68.116v-23.508" fill="none" stroke-width="3"/><path d="m231.93 142.492v-23.509" fill="none" stroke-width="3"/><path d="m119.065 142.492v-97.884" fill="none" stroke-width="3"/><path d="m1185.089 304.023h-166.667" fill="none" stroke-width="3"/><path d="m1338.76 323.356h-203.671" fill="none" stroke-width="3"/><path d="m1362.422 382.116h-177.333" fill="none" stroke-width="3"/><path d="m1135.089 320.023v84.667" fill="none" stroke-width="3"/><path d="m523.826 483.69v72.802" fill="none" stroke-width="3"/><path d="m798.367 118.323v71.523" fill="none" stroke-width="3"/><path d="m170.242 248.366v156.324" fill="none" stroke-width="3"/><path d="m906.047 97.2v185.292" fill="none" stroke-width="3"/><path d="m1275.639 481.992v114.54" fill="none" stroke-width="3"/><path d="m750.826 481.992v114.54" fill="none" stroke-width="3"/><path d="m1135.089 404.69h-120" fill="none" stroke-width="3"/><path d="m1018.422 447.356h431.334" fill="none" stroke-width="3"/><path d="m1015.089 596.532h260.55" fill="none" stroke-width="3"/><path d="m176.492 557.848h347.884" fill="none" stroke-width="3"/><path d="m1449.756 447.356v-124" fill="none" stroke-width="3"/><path d="m1449.756 323.356h-63.997" fill="none" stroke-width="3"/></g><text transform="translate(1063.164 222.492)"><tspan fill="#656565" font-family="Avenir-Medium" font-size="26" x="-70.564" y="-14.5">Y deflection </tspan><tspan fill="#656565" font-family="Avenir-Medium" font-size="26" x="-35.386" y="21.5">circuit</tspan></text><text transform="translate(862.473 67.116)"><tspan fill="#656565" font-family="Avenir-Medium" font-size="26" x="-63.063" y="1">Y amplifier</tspan></text><text transform="translate(536.826 96.616)"><tspan fill="#656565" font-family="Avenir-Medium" font-size="26" x="-7.956" y="-12">Y </tspan><tspan fill="#656565" font-family="Avenir-Medium" font-size="26" x="-62.14" y="24">attenuator</tspan></text><text transform="translate(1089.973 497.139)"><tspan fill="#656565" font-family="Avenir-Medium" font-size="26" x="-71.032" y="-12.951">X deflection </tspan><tspan fill="#656565" font-family="Avenir-Medium" font-size="26" x="-35.386" y="23.049">circuit</tspan></text><text transform="translate(868.228 557.348)"><tspan fill="#656565" font-family="Avenir-Medium" font-size="26" x="-50.323" y="-12.951">Blanking </tspan><tspan fill="#656565" font-family="Avenir-Medium" font-size="26" x="-51.493" y="23.049">amplifier</tspan></text><text transform="translate(1233.062 96.7)"><tspan fill="#656565" font-family="Avenir-Medium" font-size="26" x="-72.501" y="-12">Cathode ray </tspan><tspan fill="#656565" font-family="Avenir-Medium" font-size="26" x="-27.209" y="24">tube</tspan></text><text transform="translate(523.326 430.773)"><tspan fill="#656565" font-family="Avenir-Medium" font-size="26" x="-39.494" y="-11.083">Sweep </tspan><tspan fill="#656565" font-family="Avenir-Medium" font-size="26" x="-28.171" y="24.917">logic</tspan></text><text transform="translate(70.326 389.689)"><tspan fill="#656565" font-family="Avenir-Medium" font-size="26" x="-48.633" y="-28.5">External </tspan><tspan fill="#656565" font-family="Avenir-Medium" font-size="26" x="-40.664" y="7.5">trigger </tspan><tspan fill="#656565" font-family="Avenir-Medium" font-size="26" x="-30.329" y="43.5">input</tspan></text><text transform="translate(63.283 53.616)"><tspan fill="#656565" font-family="Avenir-Medium" font-size="26" x="-35.386" y="-12.5">Signal </tspan><tspan fill="#656565" font-family="Avenir-Medium" font-size="26" x="-30.329" y="23.5">input</tspan></text><text transform="translate(94.028 198.74)"><tspan fill="#656565" font-family="Avenir-Medium" font-size="26" x="-36.829" y="-12.5">Y shift </tspan><tspan fill="#656565" font-family="Avenir-Medium" font-size="26" x="-41.444" y="23.5">control</tspan></text><text transform="translate(220.594 366.804)"><tspan fill="#656565" font-family="Avenir-Medium" font-size="26" x="-44.785" y="-10.5">Internal </tspan><tspan fill="#656565" font-family="Avenir-Medium" font-size="26" x="-40.664" y="25.5">trigger</tspan></text><text transform="translate(102.881 563.47)"><tspan fill="#656565" font-family="Avenir-Medium" font-size="26" x="-42.12" y="-14.938">Trigger </tspan><tspan fill="#656565" font-family="Avenir-Medium" font-size="26" x="-73.437" y="21.062">polarity + / -</tspan></text><text transform="translate(751.543 430.773)"><tspan fill="#656565" font-family="Avenir-Medium" font-size="26" x="-33.709" y="-28.5">Ramp </tspan><tspan fill="#656565" font-family="Avenir-Medium" font-size="26" x="-58.526" y="7.5">generator </tspan><tspan fill="#656565" font-family="Avenir-Medium" font-size="26" x="-63.804" y="43.5">(Timebase)</tspan></text><path d="m843.326 415.19 21.528-21v21l20.974-21v21l21.026-21v21l21.443-21v21" fill="none" stroke="#de787a" stroke-width="2"/><path d="m1378.196 533.148c0-7.87-7.135-14.25-15.937-14.25-8.801 0-15.936 6.38-15.936 14.25" fill="none" stroke="#000" stroke-width="3"/><path d="m1333.305 515.156 5.454-7.334" fill="none" stroke="#000" stroke-width="3"/><path d="m1338.759 507.822h47" fill="none" stroke="#000" stroke-width="3"/><path d="m1385.759 507.822 7.33 7.334" fill="none" stroke="#000" stroke-width="3"/><path d="m1393.089 515.156v36" fill="none" stroke="#000" stroke-width="3"/><path d="m176.492 452.439c0 3.452-2.798 6.25-6.25 6.25s-6.25-2.798-6.25-6.25 2.798-6.25 6.25-6.25 6.25 2.798 6.25 6.25z" fill="#fff"/><path d="m176.492 452.439c0 3.452-2.798 6.25-6.25 6.25s-6.25-2.798-6.25-6.25 2.798-6.25 6.25-6.25 6.25 2.798 6.25 6.25z" fill="none" stroke="#000" stroke-width="2"/><path d="m49.328 452.439c0 4.28-3.47 7.75-7.75 7.75-4.281 0-7.75-3.47-7.75-7.75s3.469-7.75 7.75-7.75c4.28 0 7.75 3.47 7.75 7.75z" fill="#fff"/><path d="m49.328 452.439c0 4.28-3.47 7.75-7.75 7.75-4.281 0-7.75-3.47-7.75-7.75s3.469-7.75 7.75-7.75c4.28 0 7.75 3.47 7.75 7.75z" fill="none" stroke="#000" stroke-width="4"/><path d="m119.065 95.248h-69.737" fill="none" stroke="#000" stroke-width="3"/><path d="m49.328 93.55c0 4.28-3.47 7.75-7.75 7.75-4.281 0-7.75-3.47-7.75-7.75 0-4.281 3.469-7.75 7.75-7.75 4.28 0 7.75 3.469 7.75 7.75z" fill="#fff"/><path d="m49.328 93.55c0 4.28-3.47 7.75-7.75 7.75-4.281 0-7.75-3.47-7.75-7.75 0-4.281 3.469-7.75 7.75-7.75 4.28 0 7.75 3.469 7.75 7.75z" fill="none" stroke="#000" stroke-width="4"/><path d="m176.492 410.94c0 3.451-2.798 6.25-6.25 6.25s-6.25-2.799-6.25-6.25c0-3.452 2.798-6.25 6.25-6.25s6.25 2.798 6.25 6.25z" fill="#fff"/><path d="m176.492 410.94c0 3.451-2.798 6.25-6.25 6.25s-6.25-2.799-6.25-6.25c0-3.452 2.798-6.25 6.25-6.25s6.25 2.798 6.25 6.25z" fill="none" stroke="#000" stroke-width="2"/><path d="m214.639 431.821c0 3.452-2.799 6.25-6.25 6.25-3.452 0-6.25-2.798-6.25-6.25 0-3.451 2.798-6.25 6.25-6.25 3.451 0 6.25 2.799 6.25 6.25z" fill="#fff"/><path d="m214.639 431.821c0 3.452-2.799 6.25-6.25 6.25-3.452 0-6.25-2.798-6.25-6.25 0-3.451 2.798-6.25 6.25-6.25 3.451 0 6.25 2.799 6.25 6.25z" fill="none" stroke="#000" stroke-width="2"/><path d="m176.492 415.19 25.647 16.631" fill="none" stroke="#000" stroke-width="4"/><path d="m469.326 96.699h-193" fill="none" stroke="#000" stroke-width="3"/><path d="m231.93 46.808h-112.865" fill="none" stroke="#000" stroke-width="3"/><path d="m231.93 142.492h-112.865" fill="none" stroke="#000" stroke-width="3"/><path d="m238.18 116.45c0 3.452-2.799 6.25-6.25 6.25-3.452 0-6.25-2.798-6.25-6.25 0-3.451 2.798-6.25 6.25-6.25 3.451 0 6.25 2.799 6.25 6.25z" fill="#fff"/><path d="m238.18 116.45c0 3.452-2.799 6.25-6.25 6.25-3.452 0-6.25-2.798-6.25-6.25 0-3.451 2.798-6.25 6.25-6.25 3.451 0 6.25 2.799 6.25 6.25z" fill="none" stroke="#000" stroke-width="2"/><path d="m238.18 74.366c0 3.452-2.799 6.25-6.25 6.25-3.452 0-6.25-2.798-6.25-6.25s2.798-6.25 6.25-6.25c3.451 0 6.25 2.798 6.25 6.25z" fill="#fff"/><path d="m238.18 74.366c0 3.452-2.799 6.25-6.25 6.25-3.452 0-6.25-2.798-6.25-6.25s2.798-6.25 6.25-6.25c3.451 0 6.25 2.798 6.25 6.25z" fill="none" stroke="#000" stroke-width="2"/><path d="m276.326 95.248c0 3.452-2.798 6.25-6.25 6.25s-6.25-2.798-6.25-6.25 2.798-6.25 6.25-6.25 6.25 2.798 6.25 6.25z" fill="#fff"/><path d="m276.326 95.248c0 3.452-2.798 6.25-6.25 6.25s-6.25-2.798-6.25-6.25 2.798-6.25 6.25-6.25 6.25 2.798 6.25 6.25z" fill="none" stroke="#000" stroke-width="2"/><path d="m238.18 78.616 25.646 16.632" fill="none" stroke="#000" stroke-width="4"/><path d="m165.18 67.616v-42.616h17v42.616z" fill="#fff"/><path d="m163.992 68.116v-42.616" fill="none" stroke="#000" stroke-width="12"/><path d="m185.163 68.116v-42.616" fill="none" stroke="#000" stroke-width="12"/><path d="m301.071 420.131h24v22.284h-24z" fill="none" stroke="#000" stroke-width="2"/><path d="m301.071 420.131h24v22.284h-24z" fill="none" stroke="#000" stroke-width="2"/><path d="m301.071 420.131h35.732" fill="none" stroke="#000" stroke-width="2"/><path d="m289.339 442.415h35.732" fill="none" stroke="#000" stroke-width="2"/></svg>